<?xml version="1.0" standalone="no"?>
<!DOCTYPE svg PUBLIC "-//W3C//DTD SVG 20010904//EN"
 "http://www.w3.org/TR/2001/REC-SVG-20010904/DTD/svg10.dtd">
<svg version="1.0" xmlns="http://www.w3.org/2000/svg"
 width="545.000000pt" height="524.000000pt" viewBox="0 0 545.000000 524.000000"
 preserveAspectRatio="xMidYMid meet">

<g transform="translate(0.000000,524.000000) scale(0.100000,-0.100000)"
fill="#000000" stroke="none">
<path d="M0 2620 l0 -2620 2725 0 2725 0 0 2620 0 2620 -2725 0 -2725 0 0
-2620z m3060 2547 c221 -31 376 -66 554 -125 78 -26 149 -46 159 -44 23 2 201
-77 302 -135 423 -243 744 -579 981 -1029 31 -57 60 -104 64 -104 23 0 122
-266 170 -455 64 -251 75 -351 75 -665 -1 -306 -11 -396 -78 -660 -45 -178
-92 -303 -182 -485 -343 -696 -996 -1202 -1748 -1356 -179 -36 -355 -59 -459
-60 -138 0 -487 51 -654 96 -239 66 -482 176 -678 306 -97 65 -347 290 -448
404 -97 109 -208 277 -208 314 0 23 -70 118 -185 250 -91 107 -179 259 -265
463 -53 126 -79 176 -89 173 -10 -4 -12 1 -7 21 4 16 3 23 -3 20 -6 -4 -15 12
-21 34 -5 22 -14 57 -20 78 -35 137 -56 434 -41 587 5 55 8 101 6 103 -1 2 -9
-30 -16 -70 -10 -52 -13 -152 -11 -348 2 -281 -4 -317 -30 -175 -19 108 -22
34 -4 -93 37 -250 131 -554 238 -766 16 -32 27 -60 25 -62 -17 -17 -167 259
-218 398 -15 44 -34 51 -25 11 12 -53 -30 36 -69 147 -131 375 -150 773 -59
1219 14 69 27 146 29 171 5 57 73 252 135 385 187 401 492 757 862 1005 53 36
98 72 101 80 5 20 175 116 318 179 255 112 522 181 844 215 22 2 139 3 260 1
166 -3 263 -9 395 -28z"/>
<path d="M2830 4590 c0 -5 9 -10 21 -10 11 0 17 5 14 10 -3 6 -13 10 -21 10
-8 0 -14 -4 -14 -10z"/>
<path d="M2696 4575 c-6 -17 -46 -21 -46 -5 0 6 -20 10 -45 10 -25 0 -45 -4
-45 -9 0 -5 -35 -12 -77 -16 -43 -4 -83 -11 -89 -16 -7 -6 -16 -4 -24 6 -14
16 -35 21 -25 6 9 -16 -30 -31 -110 -41 -51 -6 -123 -28 -218 -65 -78 -31
-148 -57 -155 -59 -7 -1 -19 -13 -25 -27 -9 -16 -22 -25 -44 -27 -21 -2 -33
-10 -36 -23 -5 -20 -33 -36 -44 -25 -3 3 2 15 12 26 10 11 13 20 7 20 -6 0
-14 -5 -18 -11 -3 -6 -23 -19 -43 -28 -37 -16 -101 -64 -101 -75 0 -3 7 -6 16
-6 8 0 12 -4 9 -10 -3 -5 -16 -10 -28 -10 -13 0 -40 -9 -62 -20 l-38 -20 28
30 c16 17 23 30 16 30 -12 0 -117 -101 -156 -150 -11 -14 -38 -47 -59 -75 -22
-27 -51 -63 -65 -78 l-26 -29 -5 32 -5 32 -51 -63 c-220 -274 -359 -604 -415
-987 -12 -81 -24 -154 -27 -162 -8 -24 -20 30 -14 65 l5 30 -23 -23 c-22 -23
-22 -27 -18 -237 2 -141 7 -218 14 -225 9 -9 13 -2 18 24 4 20 13 36 20 36 17
0 26 44 26 125 0 61 4 75 48 165 l23 45 -6 -45 c-3 -24 -10 -47 -14 -50 -14
-8 -26 -366 -12 -374 7 -5 11 6 11 35 0 31 3 40 11 32 5 -5 11 -50 11 -99 0
-49 7 -116 14 -149 8 -33 14 -88 14 -123 0 -42 6 -75 19 -100 10 -20 40 -104
66 -187 46 -144 76 -211 87 -199 14 13 48 -22 48 -48 0 -21 5 -28 20 -28 10 0
24 -9 30 -20 15 -28 -2 -25 -39 6 -40 33 -42 10 -3 -37 31 -39 126 -129 136
-129 24 0 -20 110 -70 176 -13 17 -24 36 -24 42 0 5 -13 39 -30 74 -30 64 -38
98 -21 98 5 0 13 -10 17 -22 3 -13 16 -36 28 -53 11 -16 20 -35 18 -42 -1 -7
11 -31 28 -54 16 -23 30 -50 30 -61 0 -10 5 -18 10 -18 6 0 10 -11 10 -24 0
-17 11 -31 34 -46 19 -11 40 -34 48 -50 7 -16 20 -31 30 -33 10 -3 18 -14 18
-25 0 -11 18 -36 39 -54 22 -18 45 -46 52 -61 12 -27 33 -35 44 -17 7 12 -10
47 -38 77 -20 22 -20 23 -1 23 17 1 17 2 -5 20 -26 22 -46 27 -35 8 5 -9 2 -9
-9 1 -18 15 -24 57 -6 46 25 -16 -16 32 -52 60 -35 28 -69 78 -69 104 0 19 40
13 40 -6 1 -10 23 -34 51 -53 27 -19 48 -41 47 -48 -4 -18 119 -147 159 -166
17 -9 51 -38 74 -66 23 -27 50 -52 60 -55 11 -4 19 -13 19 -20 0 -8 14 -21 30
-30 17 -9 30 -20 30 -24 0 -14 110 -80 153 -92 21 -5 37 -16 37 -24 0 -21 40
-44 102 -60 29 -8 61 -24 70 -35 13 -16 27 -20 62 -19 44 3 81 -15 70 -32 -3
-5 12 -9 33 -9 22 0 88 -9 149 -21 60 -11 163 -24 229 -29 66 -4 130 -11 143
-15 14 -5 22 -3 22 4 0 6 -8 11 -17 11 -10 0 -24 4 -31 8 -7 5 64 8 158 8 119
0 174 4 182 12 9 9 7 12 -10 12 -26 0 -29 18 -6 27 10 4 22 0 28 -8 15 -20 44
-30 51 -19 4 6 -4 10 -17 10 -18 0 -20 2 -8 9 14 9 73 20 149 26 20 2 68 15
107 29 39 14 91 27 115 29 43 3 84 19 104 42 6 6 37 22 70 35 198 77 347 162
396 224 11 14 42 37 69 52 32 18 52 36 59 55 7 19 17 29 30 29 12 0 21 4 21 9
0 4 16 28 34 53 19 25 38 57 41 71 4 15 21 35 38 45 18 10 44 36 58 58 15 21
47 71 73 109 25 39 57 85 71 104 14 19 25 38 25 44 0 6 -22 -21 -49 -59 -27
-38 -70 -94 -96 -124 -25 -30 -70 -85 -100 -121 -47 -58 -57 -66 -82 -62 -18
3 -24 1 -16 -4 16 -11 -46 -72 -128 -127 -31 -21 -72 -53 -90 -72 -18 -19 -39
-34 -46 -34 -7 0 -40 -18 -74 -40 -54 -35 -99 -51 -99 -35 0 2 17 13 38 24 20
10 45 28 56 40 10 11 23 18 28 15 5 -3 29 13 53 35 25 23 52 41 60 41 9 0 14
4 11 9 -3 5 10 12 29 15 22 5 35 13 35 22 0 9 16 32 35 51 19 19 35 39 35 44
0 4 15 15 33 24 18 8 42 33 55 56 13 22 36 48 52 58 27 16 28 20 16 36 -13 18
-16 17 -56 -23 -45 -45 -56 -51 -46 -27 3 8 1 15 -4 15 -12 0 -32 -38 -26 -49
3 -5 -4 -17 -16 -27 -21 -19 -21 -19 -15 4 5 22 5 23 -12 8 -10 -9 -34 -39
-52 -66 -32 -47 -84 -85 -101 -74 -16 10 -8 44 10 44 15 0 45 37 64 83 4 9 17
17 28 17 11 0 20 4 20 9 0 5 24 36 54 69 30 34 64 83 76 109 11 26 38 66 59
88 22 22 42 50 46 63 3 12 10 20 15 17 4 -3 11 6 14 19 3 14 12 31 20 39 26
25 75 135 78 171 1 20 7 36 13 36 24 0 44 37 54 99 6 35 18 72 27 82 12 14 15
30 11 65 -3 35 -1 50 12 63 14 14 16 46 15 256 -1 132 -3 251 -3 265 -1 14 -1
34 1 45 2 14 -3 21 -18 23 -19 3 -21 7 -13 40 6 26 4 41 -5 52 -31 35 -37 60
-25 93 10 30 9 38 -15 76 -18 29 -26 51 -22 66 4 15 1 25 -9 28 -7 3 -19 25
-25 49 -7 24 -16 54 -21 67 -6 14 -6 28 -1 33 15 15 -13 103 -32 102 -13 -2
-14 1 -6 11 8 10 8 15 -1 20 -6 4 -15 2 -19 -5 -6 -9 -9 -9 -15 0 -4 6 -2 17
4 23 18 18 13 27 -14 27 -14 0 -25 5 -25 10 0 6 5 10 10 10 15 0 12 11 -12 50
-12 19 -23 43 -25 53 -3 17 -26 57 -50 87 -7 8 -29 38 -50 66 -21 29 -73 91
-115 139 -43 48 -78 91 -78 96 0 5 -9 9 -19 9 -11 0 -34 17 -53 39 -77 90
-333 225 -578 304 -91 30 -193 60 -227 67 -76 15 -85 35 -13 28 l49 -5 -22 23
c-24 26 -53 31 -60 12 -4 -10 -7 -10 -18 0 -18 16 -49 15 -69 -3 -15 -13 -22
-12 -70 12 -49 24 -54 25 -65 10 -14 -20 -39 -21 -100 -6 -31 8 -49 8 -64 0
-17 -10 -21 -9 -21 4 0 19 -36 20 -44 0z m1789 -1156 c11 -17 -1 -21 -15 -4
-8 9 -8 15 -2 15 6 0 14 -5 17 -11z m-2620 -334 c164 -44 270 -146 311 -299
36 -132 23 -329 -28 -433 -33 -68 -98 -129 -176 -166 l-67 -32 -251 -3 -251
-3 -7 32 c-13 69 -8 88 29 106 l35 17 0 323 c0 269 -2 323 -14 323 -8 0 -24 8
-36 18 -21 17 -22 23 -15 81 l7 62 202 -5 c139 -3 220 -10 261 -21z m848 15
c137 -13 209 -39 264 -96 49 -51 65 -99 67 -199 3 -208 -113 -310 -371 -322
l-113 -6 0 -81 0 -81 58 -20 c50 -18 57 -24 60 -49 2 -16 1 -44 -3 -63 l-6
-33 -188 0 -188 0 -6 53 c-5 48 -3 54 21 74 15 13 33 23 40 23 9 0 12 70 12
319 l0 319 -37 20 -38 19 4 59 c2 33 8 62 15 66 16 11 285 10 409 -2z m1054
-19 c56 -28 124 -108 147 -169 16 -46 21 -52 46 -52 15 0 39 -9 54 -21 24 -19
26 -26 26 -105 0 -94 -15 -123 -67 -125 -16 -1 -37 -2 -49 -3 -11 0 -48 -26
-81 -57 l-60 -55 44 -24 c65 -35 130 -101 142 -146 6 -22 11 -67 11 -101 0
-60 -1 -63 -24 -63 -23 0 -24 3 -27 78 -5 90 -23 123 -96 171 -52 35 -63 38
-63 17 0 -8 -11 -28 -25 -44 -14 -17 -25 -32 -25 -34 0 -3 27 -5 60 -5 88 0
100 -14 100 -120 0 -82 0 -83 -25 -83 -24 0 -25 2 -25 75 0 64 -3 75 -17 76
-50 4 -300 4 -310 1 -9 -3 -13 -28 -13 -78 0 -72 -1 -74 -25 -74 -25 0 -25 1
-25 83 0 104 11 118 97 122 32 1 60 3 61 4 2 0 -8 15 -22 32 -14 17 -26 37
-26 45 0 21 -11 18 -63 -17 -74 -49 -91 -81 -96 -172 -3 -73 -5 -78 -25 -75
-18 3 -21 10 -24 60 -4 86 12 133 65 185 25 24 66 54 91 67 l44 22 -26 18
c-15 9 -41 33 -59 52 -27 30 -40 36 -80 39 -89 5 -118 51 -102 165 8 57 39 90
85 90 23 0 30 7 45 48 63 167 224 244 362 173z m-77 -916 c0 -21 -5 -25 -30
-25 -25 0 -30 4 -30 25 0 21 5 25 30 25 25 0 30 -4 30 -25z"/>
<path d="M1662 2624 l3 -327 81 1 c95 2 119 9 167 52 54 47 72 111 72 250 0
238 -73 339 -253 348 l-72 4 2 -328z"/>
<path d="M2560 2791 l0 -161 78 0 c143 1 197 45 197 160 0 121 -35 151 -182
158 l-93 4 0 -161z"/>
<path d="M3574 3035 c-54 -27 -107 -90 -120 -141 l-7 -29 22 20 c13 11 29 34
36 52 16 38 27 41 62 13 36 -28 135 -28 181 0 43 26 50 25 64 -7 13 -32 47
-73 60 -73 13 0 -36 91 -66 123 -33 36 -101 66 -147 67 -19 0 -58 -11 -85 -25z"/>
<path d="M3509 2859 l-37 -39 84 0 c83 0 84 0 84 -25 0 -18 5 -25 20 -25 15 0
20 7 20 25 0 25 1 25 87 25 l88 0 -33 23 c-17 12 -34 30 -38 40 -4 13 -11 16
-27 10 -26 -9 -175 -11 -197 -2 -9 4 -28 -8 -51 -32z"/>
<path d="M3434 2805 c-9 -22 5 -104 25 -150 50 -111 180 -165 286 -116 50 22
109 86 125 136 17 51 18 137 3 142 -10 4 -13 -15 -13 -71 l0 -76 -90 0 c-89 0
-90 0 -90 25 0 18 -5 25 -20 25 -15 0 -20 -7 -20 -25 0 -25 -1 -25 -90 -25
l-90 0 0 75 c0 70 -12 97 -26 60z m196 -186 c0 -14 32 -18 53 -7 47 25 72 13
44 -23 -21 -27 -56 -41 -88 -34 -31 7 -65 47 -55 64 7 11 46 11 46 0z"/>
<path d="M3332 2798 c-18 -18 -15 -113 3 -132 31 -31 45 -9 45 70 0 65 -2 74
-18 74 -10 0 -23 -5 -30 -12z"/>
<path d="M3940 2736 c0 -80 14 -101 46 -69 12 13 15 29 11 69 -6 62 -12 74
-38 74 -17 0 -19 -7 -19 -74z"/>
<path d="M3510 2745 c0 -22 4 -25 40 -25 36 0 40 3 40 25 0 23 -4 25 -40 25
-36 0 -40 -2 -40 -25z"/>
<path d="M3730 2745 c0 -22 4 -25 40 -25 36 0 40 3 40 25 0 23 -4 25 -40 25
-36 0 -40 -2 -40 -25z"/>
<path d="M3643 2462 c-34 -2 -43 -7 -43 -22 0 -46 71 -68 104 -31 20 22 18 54
-4 55 -8 1 -34 0 -57 -2z"/>
<path d="M3000 4570 c8 -5 22 -9 30 -9 10 0 8 3 -5 9 -27 12 -43 12 -25 0z"/>
<path d="M1751 4361 c-8 -6 -9 -11 -3 -15 6 -3 14 -1 17 5 9 14 2 20 -14 10z"/>
<path d="M1225 1200 c4 -14 14 -36 23 -50 l15 -25 -26 18 c-14 9 -30 17 -34
17 -15 0 65 -74 122 -112 l60 -41 -43 45 c-38 40 -42 47 -35 79 6 30 5 33 -10
21 -14 -12 -20 -8 -48 30 -23 32 -29 37 -24 18z"/>
<path d="M1500 859 c0 -7 -10 -9 -24 -5 l-25 6 26 -40 c20 -30 31 -39 45 -34
12 3 18 0 18 -9 0 -8 6 -17 13 -20 8 -3 58 -36 113 -75 55 -38 133 -85 174
-105 41 -20 95 -47 120 -60 46 -25 153 -63 203 -71 20 -3 27 -1 27 11 0 11 -6
14 -21 10 -15 -4 -23 0 -26 13 -3 11 -15 22 -27 26 -11 4 -106 49 -211 100
-188 93 -261 140 -349 222 -47 44 -56 49 -56 31z"/>
</g>
</svg>
